<svg width="59" height="53" viewBox="0 0 59 53" fill="none" xmlns="http://www.w3.org/2000/svg">
<rect x="6.26099" y="10.9191" width="46.8164" height="29.7224" stroke="#861313"/>
<rect x="0.0998933" y="0.658779" width="45.021" height="31.1233" transform="matrix(0.837141 0.546988 -0.637354 0.770571 20.9101 1.29877)" stroke="#910D0D"/>
<rect x="-0.743456" y="0.0700643" width="43.7341" height="32.0596" transform="matrix(-0.681052 0.732235 -0.80586 -0.592107 56.8605 20.2308)" stroke="#F52222"/>
<path d="M28.6683 22.7775C28.9337 22.4432 29.0211 22.0924 28.9303 21.7251C28.8396 21.3577 28.5744 21.0055 28.1348 20.6684C27.836 20.4394 27.5467 20.2842 27.2668 20.2029C26.9893 20.1191 26.7314 20.1013 26.4928 20.1496C26.2572 20.2 26.0577 20.3093 25.8945 20.4774C25.7528 20.6133 25.6665 20.7604 25.6355 20.9189C25.6074 21.0796 25.6196 21.2468 25.6723 21.4204C25.7274 21.5916 25.8108 21.7689 25.9227 21.9525C26.037 22.1334 26.1701 22.3154 26.3218 22.4984L26.9363 23.263C27.2398 23.629 27.4875 23.9966 27.6795 24.3661C27.8714 24.7355 27.9927 25.1018 28.0432 25.465C28.0938 25.8282 28.06 26.1845 27.942 26.534C27.8268 26.8857 27.6123 27.2257 27.2985 27.5541C26.8307 28.031 26.2923 28.3426 25.6833 28.489C25.0796 28.635 24.4329 28.6126 23.7433 28.4216C23.059 28.2303 22.3646 27.8646 21.66 27.3244C20.9611 26.7885 20.4464 26.225 20.1158 25.6338C19.7881 25.0447 19.6633 24.449 19.7416 23.8468C19.8251 23.2441 20.1331 22.6558 20.6656 22.0819L22.4368 23.4399C22.2018 23.7175 22.0722 24.0004 22.0481 24.2885C22.0293 24.5763 22.1006 24.8599 22.262 25.1392C22.4288 25.4182 22.67 25.6787 22.9856 25.9207C23.2956 26.1583 23.6043 26.3239 23.9117 26.4174C24.2219 26.513 24.5109 26.5368 24.7787 26.4888C25.0465 26.4408 25.2719 26.3225 25.4549 26.1339C25.6256 25.9581 25.7113 25.766 25.712 25.5576C25.7155 25.3514 25.6481 25.122 25.5099 24.8694C25.3746 24.6189 25.1824 24.3383 24.9336 24.0275L24.1987 23.0907C23.6246 22.3705 23.2919 21.6776 23.2006 21.0121C23.1093 20.3465 23.3457 19.7256 23.91 19.1493C24.3672 18.6731 24.9086 18.366 25.5342 18.2278C26.1626 18.0919 26.8212 18.1146 27.5102 18.2962C28.1991 18.4777 28.8591 18.8104 29.4904 19.2944C30.1329 19.7871 30.5973 20.3164 30.8835 20.8825C31.1725 21.4508 31.2789 22.0146 31.2029 22.5741C31.1268 23.1336 30.8667 23.6497 30.4226 24.1225L28.6683 22.7775ZM35.8014 30.6532L34.0638 29.481C34.1593 29.332 34.21 29.1708 34.2159 28.9976C34.2243 28.8218 34.1821 28.645 34.0893 28.4672C34.0017 28.2889 33.8537 28.1199 33.6452 27.96C33.3662 27.7461 33.0789 27.6192 32.7834 27.5793C32.4904 27.5368 32.2585 27.6035 32.0879 27.7794C31.9518 27.9195 31.8988 28.0855 31.9288 28.2774C31.9589 28.4694 32.0962 28.7102 32.3409 29L33.3083 30.1151C33.8258 30.7163 34.1134 31.2657 34.1711 31.7633C34.2288 32.2609 34.0524 32.7212 33.6419 33.1442C33.2684 33.529 32.8153 33.7705 32.2825 33.8687C31.7526 33.9691 31.1915 33.9344 30.5992 33.7648C30.0122 33.5947 29.4369 33.2936 28.8733 32.8615C28.0137 32.2025 27.486 31.5156 27.29 30.8009C27.0993 30.0858 27.2323 29.4144 27.6891 28.7868L29.5419 30.0607C29.3654 30.3388 29.3195 30.6191 29.404 30.9017C29.491 31.1817 29.6951 31.4449 30.0164 31.6912C30.332 31.9332 30.6389 32.0729 30.9368 32.1103C31.2401 32.1472 31.4785 32.0789 31.652 31.9052C31.7926 31.7553 31.841 31.5813 31.7973 31.3833C31.756 31.1827 31.6191 30.9489 31.3868 30.6819L30.459 29.6172C29.9362 29.0164 29.6571 28.4557 29.6216 27.9351C29.5889 27.4168 29.7853 26.9384 30.2107 26.5001C30.5768 26.123 31.0048 25.8845 31.4949 25.7847C31.9878 25.6871 32.5117 25.7221 33.0666 25.8897C33.6243 26.0595 34.1808 26.3573 34.7359 26.7829C35.556 27.4117 36.0493 28.0632 36.2157 28.7375C36.3849 29.4139 36.2469 30.0525 35.8014 30.6532Z" fill="black"/>
</svg>
